<?xml version="1.0" encoding="UTF-8" standalone="no"?>
<!-- Generator: Adobe Illustrator 16.0.0, SVG Export Plug-In . SVG Version: 6.00 Build 0)  -->

<svg
   xmlns:dc="http://purl.org/dc/elements/1.1/"
   xmlns:cc="http://creativecommons.org/ns#"
   xmlns:rdf="http://www.w3.org/1999/02/22-rdf-syntax-ns#"
   xmlns:svg="http://www.w3.org/2000/svg"
   xmlns="http://www.w3.org/2000/svg"
   xmlns:xlink="http://www.w3.org/1999/xlink"
   xmlns:sodipodi="http://sodipodi.sourceforge.net/DTD/sodipodi-0.dtd"
   xmlns:inkscape="http://www.inkscape.org/namespaces/inkscape"
   version="1.1"
   id="Layer_1"
   x="0px"
   y="0px"
   width="768px"
   height="768px"
   viewBox="0 0 768 768"
   enable-background="new 0 0 768 768"
   xml:space="preserve"
   sodipodi:docname="zevenet_zvncloud_icons-PRODUCT- virtual_3.svg"
   inkscape:version="0.92.2 (5c3e80d, 2017-08-06)"><metadata
     id="metadata19"><rdf:RDF><cc:Work
         rdf:about=""><dc:format>image/svg+xml</dc:format><dc:type
           rdf:resource="http://purl.org/dc/dcmitype/StillImage" /></cc:Work></rdf:RDF></metadata><defs
     id="defs17" /><sodipodi:namedview
     pagecolor="#ffffff"
     bordercolor="#666666"
     borderopacity="1"
     objecttolerance="10"
     gridtolerance="10"
     guidetolerance="10"
     inkscape:pageopacity="0"
     inkscape:pageshadow="2"
     inkscape:window-width="1920"
     inkscape:window-height="1002"
     id="namedview15"
     showgrid="false"
     inkscape:zoom="0.86915208"
     inkscape:cx="534.35839"
     inkscape:cy="379.72289"
     inkscape:window-x="0"
     inkscape:window-y="49"
     inkscape:window-maximized="1"
     inkscape:current-layer="Layer_1" /><circle
     fill="#FFFFFF"
     cx="384"
     cy="384"
     r="384"
     id="circle2" /><image
     sodipodi:absref="/home/laura/Downloads/ZVNcloud.png"
     xlink:href="ZVNcloud.png"
     id="image4"
     transform="matrix(1 0 0 1 -8030.5098 -8144.4004)"
     height="500"
     width="519"
     enable-background="new    "
     overflow="visible" /><path
     fill="none"
     stroke="#21B573"
     stroke-miterlimit="10"
     d="M603.602,229.199c9.034-84.133-53.38-179.125-161.952-179.125  c-52.476,0-101.315,25.324-132.09,67.851c-78.703-22.618-148.372,42.519-148.372,108.569c-37.989,11.758-63.32,46.14-63.32,85.941  c0,49.759,40.703,90.475,90.463,90.475l379.982-0.001c49.761,0,90.47-40.716,90.47-90.475  C658.783,275.345,637.071,242.777,603.602,229.199z"
     id="path6" /><path
     fill="#21B573"
     d="M658.783,312.436c0-37.091-21.711-69.66-55.183-83.236c9.034-84.133-53.38-179.125-161.952-179.125  c-52.476,0-101.315,25.324-132.09,67.851c-78.703-22.618-148.372,42.519-148.372,108.569c-37.989,11.758-63.32,46.14-63.32,85.941  c0,49.759,40.703,90.475,90.463,90.475h389.067v-0.459C622.935,397.859,658.783,359.13,658.783,312.436z M568.313,384.812H188.33  c-39.807,0-72.369-32.564-72.369-72.376c0-63.326,63.325-72.377,63.325-72.377c-4.524-94.992,91.372-123.943,137.513-101.328  c0,0,38.906-70.572,124.851-70.572c113.995,0,157.428,112.188,142.044,172.806c0,0,57.007,13.576,57.007,71.472  C640.699,352.247,608.113,384.812,568.313,384.812z"
     id="path8" /><rect
     x="355.615"
     y="347.633"
     fill="#FFFFFF"
     stroke="#FFFFFF"
     stroke-width="20"
     stroke-miterlimit="10"
     width="56.77"
     height="68.295"
     id="rect10" /><polygon
     fill="#595959"
     points="549.015,634.37 525.512,548.944 506.399,568.315 401.479,472.811 401.479,323.633 366.522,323.633   366.522,473.255 264.215,566.382 245.01,546.918 221.506,632.343 307.235,609.984 288.904,591.404 366.796,520.501 366.459,647.192   339.673,647.181 383.94,723.928 428.27,647.212 401.579,647.203 401.916,520.704 481.711,593.335 463.285,612.009 "
     id="polygon12"
     style="fill:#21b573;fill-opacity:1" /></svg>